<svg width="290" height="290" viewBox="0 0 290 290" fill="none" xmlns="http://www.w3.org/2000/svg">
    <g clip-path="url(#clip0_712_33)">
        <mask id="mask0_712_33" style="mask-type:luminance" maskUnits="userSpaceOnUse" x="0" y="0"
            width="290" height="290">
            <path d="M290 0H0V290H290V0Z" fill="white" />
        </mask>
        <g mask="url(#mask0_712_33)">
            <g filter="url(#filter0_d_712_33)">
                <path
                    d="M201.507 102.724L137.991 194.558C137.318 195.532 136.344 196.261 135.217 196.636C134.091 197.01 132.873 197.007 131.749 196.63C130.624 196.253 129.655 195.52 128.988 194.544C128.32 193.567 127.991 192.4 128.05 191.221L135.217 128.516L89.5548 131.815C88.6778 131.629 87.8607 131.231 87.1757 130.655C86.4908 130.08 85.9591 129.345 85.628 128.516C85.2969 127.686 85.1765 126.788 85.2774 125.901C85.3783 125.013 85.6973 124.164 86.2062 123.428L149.722 31.5935C150.396 30.6193 151.37 29.8901 152.496 29.5162C153.623 29.1424 154.841 29.1443 155.965 29.522C157.09 29.8996 158.059 30.6321 158.726 31.6086C159.394 32.585 159.723 33.7518 159.663 34.9322L154.137 99.0948L198.158 94.3372C199.035 94.5232 199.853 94.9216 200.538 95.4971C201.224 96.0727 201.754 96.8077 202.085 97.6371C202.417 98.4665 202.536 99.3646 202.436 100.252C202.336 101.139 202.016 101.988 201.507 102.724Z"
                    fill="#A02BFC" />
                <path
                    d="M219.229 110.616L155.714 202.45C155.041 203.424 154.067 204.153 152.94 204.528C151.813 204.902 150.596 204.899 149.471 204.522C148.347 204.145 147.378 203.412 146.71 202.436C146.043 201.459 145.714 200.292 145.773 199.113L152.94 136.408L107.277 139.707C106.4 139.521 105.583 139.123 104.898 138.547C104.213 137.972 103.682 137.237 103.351 136.408C103.019 135.578 102.899 134.68 103 133.793C103.101 132.905 103.42 132.056 103.929 131.32L167.445 39.4855C168.118 38.5113 169.092 37.7821 170.219 37.4082C171.346 37.0344 172.563 37.0363 173.688 37.414C174.812 37.7915 175.782 38.5241 176.449 39.5006C177.116 40.4769 177.445 41.6438 177.386 42.8242L171.86 106.987L215.881 102.229C216.758 102.415 217.575 102.814 218.261 103.389C218.946 103.965 219.477 104.7 219.807 105.529C220.14 106.358 220.259 107.257 220.159 108.144C220.059 109.031 219.739 109.88 219.229 110.616Z"
                    fill="#8036DA" />
                <path
                    d="M145.855 269.512C144.166 269.514 142.493 269.183 140.932 268.536C139.371 267.89 137.954 266.941 136.761 265.745L76.7459 205.735C74.3451 203.322 72.9993 200.054 73.0037 196.65C73.0082 193.245 74.3626 189.98 76.7702 187.574C79.1775 185.166 82.4415 183.811 85.8461 183.806C89.2509 183.802 92.5186 185.147 94.9326 187.547L145.855 238.464L256.791 127.534C259.209 125.155 262.469 123.828 265.861 123.841C269.255 123.855 272.505 125.209 274.902 127.608C277.301 130.007 278.657 133.257 278.671 136.649C278.683 140.042 277.356 143.303 274.976 145.721L154.947 265.745C153.755 266.942 152.337 267.89 150.777 268.536C149.217 269.183 147.544 269.514 145.855 269.512Z"
                    fill="#9851E8" />
                <path
                    d="M145.804 269.512C147.493 269.514 149.166 269.183 150.727 268.536C152.287 267.89 153.705 266.941 154.898 265.745L214.913 205.735C217.314 203.322 218.66 200.054 218.655 196.65C218.651 193.245 217.296 189.98 214.888 187.574C212.48 185.166 209.217 183.811 205.812 183.806C202.408 183.802 199.14 185.147 196.725 187.547L145.804 238.464L34.8683 127.534C32.4499 125.155 29.1892 123.828 25.7968 123.841C22.4041 123.855 19.1544 125.209 16.7555 127.608C14.3565 130.007 13.0027 133.257 12.9889 136.649C12.9751 140.042 14.3024 143.303 16.6817 145.721L136.711 265.745C137.904 266.942 139.321 267.89 140.882 268.536C142.442 269.183 144.115 269.514 145.804 269.512Z"
                    fill="#9847F5" fill-opacity="0.52" />
            </g>
        </g>
    </g>
    <defs>
        <filter id="filter0_d_712_33" x="2.44332" y="20.4494" width="293.803" height="268.396"
            filterUnits="userSpaceOnUse" color-interpolation-filters="sRGB">
            <feFlood flood-opacity="0" result="BackgroundImageFix" />
            <feColorMatrix in="SourceAlpha" type="matrix"
                values="0 0 0 0 0 0 0 0 0 0 0 0 0 0 0 0 0 0 127 0" result="hardAlpha" />
            <feOffset dx="3.51515" dy="5.27273" />
            <feGaussianBlur stdDeviation="7.0303" />
            <feComposite in2="hardAlpha" operator="out" />
            <feColorMatrix type="matrix"
                values="0 0 0 0 0.108333 0 0 0 0 0.108333 0 0 0 0 0.108333 0 0 0 0.2 0" />
            <feBlend mode="normal" in2="BackgroundImageFix" result="effect1_dropShadow_712_33" />
            <feBlend mode="normal" in="SourceGraphic" in2="effect1_dropShadow_712_33" result="shape" />
        </filter>
        <clipPath id="clip0_712_33">
            <rect width="290" height="290" fill="white" />
        </clipPath>
    </defs>
</svg>
    